<?xml version="1.0" encoding="UTF-8"?> <svg xmlns="http://www.w3.org/2000/svg" width="94" height="34" viewBox="0 0 94 34" fill="none"><g clip-path="url(#clip0_4066_33818)"><path d="M4.8001 18.6L8.6001 14.3L16.3001 24.8H21.9001L11.9001 10.7L21.3001 0.400024H15.8001L4.8001 12.6V0.400024H0.100098V24.8H4.8001V18.6ZM28.2001 15.6C28.2001 14 28.6001 12.8 29.5001 11.8C30.4001 10.8 31.6001 10.3 33.1001 10.3C34.4001 10.3 35.4001 10.7 36.1001 11.4C36.8001 12.2 37.2001 13.2 37.2001 14.5V24.8H41.8001V13.2C41.8001 11 41.2001 9.20002 40.0001 8.00002C38.8001 6.70002 37.1001 6.10002 34.9001 6.10002C31.7001 6.10002 29.5001 7.40002 28.2001 9.80002V6.20002H23.7001V24.9H28.2001V15.6ZM47.9001 23.8C49.4001 24.6 51.0001 25 52.9001 25C54.5001 25 56.0001 24.7 57.3001 24.2C58.6001 23.6 59.8001 22.9 60.7001 21.8L58.3001 19.3C57.6001 20 56.9001 20.5 56.0001 20.9C55.1001 21.3 54.2001 21.4 53.3001 21.4C51.9001 21.4 50.8001 21 49.8001 20.3C48.9001 19.4 48.3001 18.4 48.0001 17.1H61.8001V15.7C61.8001 12.6 61.1001 10.2 59.6001 8.60002C58.1001 6.90002 55.9001 6.10002 52.9001 6.10002C51.1001 6.10002 49.4001 6.50002 48.0001 7.30002C46.6001 8.10002 45.4001 9.20002 44.6001 10.7C43.8001 12.1 43.4001 13.8 43.4001 15.7C43.4001 17.6 43.8001 19.2 44.6001 20.6C45.3001 21.9 46.4001 23 47.9001 23.8ZM49.5001 10.7C50.4001 9.90002 51.5001 9.50002 52.8001 9.50002C54.2001 9.50002 55.4001 9.90002 56.2001 10.7C57.1001 11.5 57.5001 12.6 57.6001 14H47.8001C48.1001 12.6 48.6001 11.5 49.5001 10.7ZM70.2001 13.6C67.9001 13.6 66.2001 14.1 65.0001 15.1C63.8001 16.1 63.2001 17.5 63.2001 19.2C63.2001 20.3 63.5001 21.3 64.0001 22.2C64.5001 23.1 65.3001 23.8 66.3001 24.3C67.3001 24.8 68.4001 25 69.7001 25C71.0001 25 72.2001 24.8 73.2001 24.4C74.2001 24 75.1001 23.4 75.7001 22.6V24.9H80.2001V12.7C80.2001 10.6 79.5001 9.00002 78.2001 7.80002C76.9001 6.60002 75.0001 6.10002 72.6001 6.10002C71.0001 6.10002 69.6001 6.30002 68.4001 6.60002C67.2001 7.00002 65.9001 7.50002 64.4001 8.40002L66.0001 11.5C67.9001 10.3 69.8001 9.80002 71.5001 9.80002C72.9001 9.80002 73.9001 10.1 74.6001 10.7C75.3001 11.3 75.7001 12.2 75.7001 13.2V13.7H70.2001V13.6ZM75.6001 18.3C75.5001 19.2 75.0001 20 74.0001 20.6C73.1001 21.2 72.0001 21.5 70.7001 21.5C69.7001 21.5 68.9001 21.3 68.3001 20.8C67.7001 20.3 67.4001 19.7 67.4001 18.9C67.4001 18.1 67.7001 17.5 68.3001 17.1C68.9001 16.7 69.8001 16.6 71.0001 16.6H75.7001V18.3H75.6001ZM90.7001 21C90.0001 21 89.6001 20.8 89.2001 20.5C88.9001 20.1 88.7001 19.5 88.7001 18.7V10.2H94.0001V6.90002H88.7001V1.80002H84.2001V6.90002H81.5001V10.2H84.1001V19.4C84.1001 21.2 84.6001 22.6 85.6001 23.6C86.6001 24.5 87.9001 25 89.5001 25C91.0001 25 92.4001 24.6 93.8001 23.8V20C92.9001 20.5 91.3001 21 90.7001 21Z" fill="#0A0349"></path><path d="M0 32.6001V33.5001L94 33.6001V29.7001L0 32.6001Z" fill="#90B8DF"></path></g><defs><clipPath id="clip0_4066_33818"><rect width="94" height="33.2" fill="white" transform="translate(0 0.400024)"></rect></clipPath></defs></svg> 